# xmcd
#
# Track frame offsets:
#	150
#	25015
#	48377
#	62237
#	81230
#	103120
#	140747
#	165460
#	187695
#
# Disc length: 2688 seconds
#
# Revision: 2
# Processed by: cddbd v1.5.2PL0 Copyright (c) Steve Scherf et al.
# Submitted via: audiograbber 1.83.01
#
DISCID=710a7e09
DTITLE=Ministry - Ke*a*h**
DYEAR=1992
DGENRE=Rock and Metal
TTITLE0=Nwo
TTITLE1=Just one fix
TTITLE2=TV II
TTITLE3=Hero
TTITLE4=Jesus built my hotrod
TTITLE5=Scare crow
TTITLE6=Psalm 69
TTITLE7=Corrosion
TTITLE8=Grace
EXTD=
EXTT0=
EXTT1=
EXTT2=
EXTT3=
EXTT4=
EXTT5=
EXTT6=
EXTT7=
EXTT8=
PLAYORDER=
